<svg width="379" height="143" viewBox="0 0 379 143" fill="none" xmlns="http://www.w3.org/2000/svg">
<path d="M403.161 -275.57C390.28 -251.432 375.381 -239.831 361.109 -228.646C346.837 -217.462 333.294 -206.883 321.52 -184.82C309.645 -162.567 304.973 -139.014 299.923 -113.992C294.872 -88.9691 289.644 -62.8548 276.763 -38.717C263.882 -14.5791 248.983 -2.97792 234.711 8.2064C220.439 19.3908 206.896 29.9698 195.121 52.0333C183.247 74.2854 178.575 97.8388 173.525 122.861C168.474 147.884 163.246 173.998 150.365 198.136C137.484 222.274 122.585 233.875 108.313 245.059C94.0413 256.244 80.4978 266.823 68.7235 288.886C56.8485 311.138 52.177 334.692 47.1267 359.714C42.0763 384.737 36.8483 410.851 23.967 434.989C18.3314 445.549 11.7962 454.759 4.04762 462.828L0.058695 452.087C7.29228 444.604 13.2119 436.168 18.3443 426.551C30.2192 404.299 34.8907 380.745 39.9411 355.723C44.9914 330.7 50.2194 304.586 63.1007 280.448C75.9821 256.31 90.8812 244.709 105.153 233.525C119.424 222.341 132.968 211.762 144.742 189.698C156.617 167.446 161.289 143.892 166.339 118.87C171.389 93.8476 176.617 67.7333 189.499 43.5954C202.38 19.4576 217.279 7.85641 231.551 -3.32795C245.822 -14.5123 259.366 -25.0913 271.14 -47.1548C283.015 -69.4069 287.687 -92.9604 292.737 -117.983C297.788 -143.005 303.015 -169.12 315.897 -193.257C328.778 -217.395 343.677 -228.996 357.949 -240.181C372.221 -251.365 385.764 -261.944 397.538 -284.008C402.671 -293.625 406.904 -304.593 410.651 -317.307L417.458 -311.847C413.533 -298.04 408.897 -286.319 403.161 -275.57Z" fill="#078874" fill-opacity="0.49"/>
</svg>
